PathFileType	4	(X/Y/Z)	C:\Users\Basilio\Documents\Thesis Gigler\squatting_fais\c3dfiles\054\SLS_front_pre3\markers_experimental.trc
DataRate	CameraRate	NumFrames	NumMarkers	Units	OrigDataRate	OrigDataStartFrame	OrigNumFrames
200.000000	200.000000	4	61	mm	200.000000	533	1423
Frame#	Time	FHD			LBHD			RBHD			C7			T10			CLAV			LSHO			LUUPA			LMUPA			LDUPA			LLEP			LMEP			LRAD			LUL			LRFIN			RSHO			RUPA1			RMUPA			RDUPA			RLEP			RMEP			RRAD			RUL			RUFIN			LASI			RASI			USACR			LSACR			RSACR			LTHI1			LTHI2			LTHI3			LTHI4			LLFC			LMFC			LTIB1			LTIB2			LTIB3			LTIB4			LLMAL			LMMAL			LHEE			LMT1			LMT2			LMT5			RTHI			RTHI2			RTHI3			RTHI4			RLFC			RMFC			RTIB1			RTIB2			RTIB3			RTIB4			RLMAL			RMMAL			RHEE			RMT1			RMT2			RMT5			
		X1	Y1	Z1	X2	Y2	Z2	X3	Y3	Z3	X4	Y4	Z4	X5	Y5	Z5	X6	Y6	Z6	X7	Y7	Z7	X8	Y8	Z8	X9	Y9	Z9	X10	Y10	Z10	X11	Y11	Z11	X12	Y12	Z12	X13	Y13	Z13	X14	Y14	Z14	X15	Y15	Z15	X16	Y16	Z16	X17	Y17	Z17	X18	Y18	Z18	X19	Y19	Z19	X20	Y20	Z20	X21	Y21	Z21	X22	Y22	Z22	X23	Y23	Z23	X24	Y24	Z24	X25	Y25	Z25	X26	Y26	Z26	X27	Y27	Z27	X28	Y28	Z28	X29	Y29	Z29	X30	Y30	Z30	X31	Y31	Z31	X32	Y32	Z32	X33	Y33	Z33	X34	Y34	Z34	X35	Y35	Z35	X36	Y36	Z36	X37	Y37	Z37	X38	Y38	Z38	X39	Y39	Z39	X40	Y40	Z40	X41	Y41	Z41	X42	Y42	Z42	X43	Y43	Z43	X44	Y44	Z44	X45	Y45	Z45	X46	Y46	Z46	X47	Y47	Z47	X48	Y48	Z48	X49	Y49	Z49	X50	Y50	Z50	X51	Y51	Z51	X52	Y52	Z52	X53	Y53	Z53	X54	Y54	Z54	X55	Y55	Z55	X56	Y56	Z56	X57	Y57	Z57	X58	Y58	Z58	X59	Y59	Z59	X60	Y60	Z60	X61	Y61	Z61	

534	2.665	-220.2935943603516	1627.779663085938	-1072.558959960938	-381.7196655273438	1578.522338867188	-1146.277954101563	-401.1494445800782	1576.748413085938	-1006.956481933594	-439.5933227539064	1418.069580078125	-1067.72900390625	-514.8132934570314	1095.394287109375	-1073.49462890625	-299.9462585449219	1348.4052734375	-1073.319458007813	-362.2757263183594	1413.81982421875	-1221.3203125	-242.4159088134766	1285.5703125	-1368.032958984375	-205.2820739746094	1316.5859375	-1360.130859375	-177.6553192138672	1271.679931640625	-1389.676635742188	-120.9759063720703	1269.428100585938	-1395.554321289063	-120.4486236572266	1201.981689453125	-1353.0400390625	145.9961547851563	1265.791625976563	-1347.434692382813	148.015625	1234.648193359375	-1420.413696289063	232.6254119873047	1278.660400390625	-1376.9658203125	-357.6537170410157	1405.960327148438	-923.3555297851565	-216.7962493896485	1283.690063476563	-789.9432373046877	-178.8580932617188	1311.589599609375	-801.0081787109377	-150.4097442626953	1263.470336914063	-776.3294677734377	-105.9726791381836	1254.94189453125	-776.1514282226565	-112.430648803711	1196.640869140625	-825.8562011718752	157.7872009277344	1292.58740234375	-886.3284301757815	161.7005462646485	1256.69287109375	-814.6727294921877	236.1679382324219	1316.366088867188	-874.9805297851565	-330.3995056152344	916.6313476562502	-1168.512817382813	-351.3816833496094	941.5352783203127	-922.919616699219	-527.7126464843751	995.4214477539065	-1065.524658203125	-529.6817626953126	961.1872558593752	-1091.739990234375	-534.2128295898439	964.6001586914065	-1034.869384765625	-298.7866516113282	683.9409790039064	-1243.126953125	-226.5970764160157	638.9343261718751	-1234.062377929688	-191.3427886962891	669.1870727539064	-1226.134765625	-219.5570373535157	581.0292358398439	-1218.710693359375	-142.2476501464844	462.5252990722657	-1179.285278320313	-119.0550689697266	486.3311157226564	-1045.573852539063	-153.7439422607422	315.1096801757813	-1098.078247070313	-217.6409606933594	281.3316955566407	-1149.016357421875	-184.9834747314453	269.6893920898438	-1121.22705078125	-223.533920288086	211.5049285888672	-1074.034545898438	-336.0340576171876	110.4479904174805	-1100.209106445313	-300.9407958984376	134.1199645996094	-1008.966735839844	-406.4183959960939	104.7423095703125	-1037.75	-198.0063018798829	55.75672912597658	-1017.347106933594	-189.0904998779297	54.64545059204103	-1066.607666015625	-242.3441619873047	39.96108627319337	-1117.617309570313	-239.4737548828126	694.9882202148439	-843.0496826171877	-173.3694915771485	688.4140625000001	-852.7182617187502	-153.327377319336	712.4194335937501	-861.4713134765627	-134.5534210205078	615.6185913085939	-866.634460449219	-85.24435424804689	542.1087036132814	-873.9040527343752	-58.29515457153322	574.6310424804689	-1004.433959960938	12.20026111602784	475.4432067871095	-884.556579589844	-14.71625804901123	375.8658447265626	-855.9102172851565	28.48015594482423	391.3261108398439	-864.9097290039065	64.08469390869142	355.4651489257813	-892.740905761719	93.29398345947267	173.1609649658203	-880.820495605469	126.6482543945313	203.8622436523438	-963.4414062500002	55.52054977416994	120.7693328857422	-943.7877197265627	269.6391906738282	179.9591064453125	-936.1964111328127	267.1662597656251	188.3237609863282	-888.6541137695315	224.0833892822266	152.9540557861328	-844.2658691406252	
535	2.67	-220.2753448486329	1626.819213867188	-1072.593872070313	-381.5922546386719	1577.64599609375	-1146.306762695313	-401.076629638672	1575.780639648438	-1007.011535644531	-439.6201782226564	1417.010620117188	-1067.789672851563	-514.8567504882814	1094.443603515625	-1073.5791015625	-300.2881469726563	1347.312377929688	-1073.363647460938	-362.0094299316407	1412.788452148438	-1221.165161132813	-242.3598175048829	1285.0341796875	-1368.10595703125	-204.5154266357422	1315.601928710938	-1360.005249023438	-177.6073303222657	1270.933349609375	-1389.697631835938	-120.8353958129883	1268.620727539063	-1395.489624023438	-120.2799377441407	1201.1708984375	-1352.962768554688	146.0134429931641	1265.022338867188	-1347.33984375	148.1852264404297	1233.9794921875	-1420.20654296875	232.8022155761719	1278.073364257813	-1376.776489257813	-357.6475830078126	1404.961181640625	-923.5129394531252	-216.6883544921876	1282.825561523438	-790.0607910156252	-178.9977722167969	1310.752807617188	-801.107604980469	-150.3014373779297	1262.839721679688	-776.4907226562502	-105.8008346557617	1254.061401367188	-776.438903808594	-112.2927322387696	1196.049438476563	-826.0676269531252	157.5347595214844	1292.1767578125	-886.5859985351565	161.6725463867188	1256.151123046875	-814.8922119140627	236.2223358154297	1315.845458984375	-875.1663208007815	-330.6323547363282	915.839538574219	-1168.563354492188	-351.7391967773438	940.6665649414065	-923.0192871093752	-527.9639282226564	994.458923339844	-1065.506713867188	-529.8285522460939	960.2628173828127	-1091.777099609375	-534.5905761718751	963.696472167969	-1034.849243164063	-298.6405639648438	683.2855834960939	-1243.089599609375	-226.5072784423829	638.4007568359376	-1233.987548828125	-191.3837127685547	668.6724853515626	-1226.03173828125	-219.3149108886719	580.4743652343751	-1218.699584960938	-141.7973022460938	462.1380615234376	-1179.080810546875	-118.6387634277344	486.0702514648439	-1045.477661132813	-153.3002166748047	314.8366699218751	-1098.052001953125	-217.4239959716797	281.1885681152344	-1148.9931640625	-184.4569702148438	269.4576721191407	-1121.151611328125	-223.4440612792969	211.4122772216797	-1073.877807617188	-335.7541198730469	110.4552688598633	-1100.140869140625	-300.9562377929688	134.0921020507813	-1008.914245605469	-406.4266052246095	104.7665939331055	-1037.683471679688	-198.0458984375001	55.72204589843751	-1017.321105957031	-189.1133117675782	54.66129684448244	-1066.5947265625	-242.3040924072266	39.98072814941407	-1117.558837890625	-239.3333282470704	694.3974609375001	-843.1467895507815	-173.455062866211	687.8079833984376	-852.810729980469	-153.3495635986328	712.0131835937501	-861.5968017578127	-134.4230194091797	615.0357055664064	-866.8386230468752	-85.08428192138673	541.5452270507814	-874.0549316406252	-58.26889801025392	574.2058105468751	-1004.61669921875	12.3327054977417	475.0732727050782	-884.6014404296877	-14.62056159973145	375.5681762695313	-856.070495605469	28.46049499511719	390.8870849609376	-865.1445312500002	64.31288146972658	355.0350036621094	-892.9338378906252	93.57400512695314	172.7181396484375	-880.9981079101565	126.9512176513672	203.4470672607422	-963.7727050781252	55.61572647094728	120.3899154663086	-943.8452758789065	269.1405639648438	179.4542999267578	-936.501647949219	267.5468444824219	188.1213073730469	-889.0612792968752	224.6732025146485	152.6539916992188	-844.5899658203127	
536	2.675	-220.4336547851563	1625.802368164063	-1072.62109375	-381.5983276367188	1576.7197265625	-1146.391967773438	-401.0353393554689	1574.81005859375	-1007.070495605469	-439.6612854003907	1416.223022460938	-1067.91455078125	-515.0831909179689	1093.608154296875	-1073.585571289063	-300.0295410156251	1346.552490234375	-1073.5009765625	-362.1498718261719	1412.176025390625	-1221.440551757813	-242.2037963867188	1284.24169921875	-1368.0859375	-204.4523010253907	1314.754150390625	-1360.039306640625	-177.5824890136719	1270.334106445313	-1389.79296875	-120.6683197021485	1267.892333984375	-1395.457885742188	-120.0960159301758	1200.5810546875	-1352.9677734375	146.2864227294922	1264.424072265625	-1347.074340820313	148.9819793701172	1233.300903320313	-1420.108154296875	232.9047241210938	1277.475463867188	-1376.534912109375	-357.5879516601563	1404.085205078125	-923.662292480469	-216.6812438964844	1282.102783203125	-790.2666015625002	-178.7882843017578	1309.992919921875	-801.1900024414065	-150.1538238525391	1261.829833984375	-776.882019042969	-105.7768936157227	1253.284912109375	-776.7038574218752	-112.2853622436524	1195.217041015625	-826.2451171875002	157.6253662109375	1291.365478515625	-886.8698730468752	161.7514801025391	1255.627197265625	-815.111267089844	236.1285400390626	1315.205200195313	-875.3479614257815	-330.9285278320313	915.016540527344	-1168.556762695313	-351.8300781250001	939.8526000976565	-923.2445068359377	-528.4564208984376	993.6633911132815	-1065.529541015625	-530.0250854492189	959.438903808594	-1091.805786132813	-534.5878906250001	962.763610839844	-1034.909790039063	-298.6926269531251	682.5054931640626	-1242.962646484375	-226.4020996093751	637.9085693359376	-1233.825439453125	-191.360336303711	668.2164306640626	-1225.9912109375	-219.0255432128907	579.8369140625001	-1218.564697265625	-141.1195983886719	461.8882751464845	-1179.13525390625	-117.9510803222657	485.7918090820314	-1045.36328125	-152.876220703125	314.6744079589844	-1097.954833984375	-216.9813995361329	280.9498291015626	-1148.89990234375	-183.9359130859375	269.1536865234376	-1121.075561523438	-223.2859802246094	211.3609466552735	-1073.743286132813	-336.0653686523438	110.5147705078125	-1100.267822265625	-300.9459533691407	134.0722961425782	-1008.898376464844	-406.4408569335939	104.7397918701172	-1037.685913085938	-198.0534057617188	55.68917083740236	-1017.302185058594	-189.0501556396485	54.66356658935548	-1066.5380859375	-242.3186187744141	40.00090026855469	-1117.558959960938	-239.3050689697266	693.8870849609376	-843.0765380859377	-173.5233764648438	687.4044189453126	-853.0228271484377	-153.4177551269532	711.6140136718751	-861.7381591796877	-134.4141082763672	614.4757080078126	-866.9334106445315	-85.01614379882814	541.1145019531251	-874.0787353515627	-58.2634620666504	573.7747192382814	-1004.825134277344	12.3921594619751	474.5125732421876	-884.8728027343752	-14.2828483581543	374.9967346191407	-856.213317871094	28.57833099365235	390.5659484863282	-865.2272949218752	64.59009552001955	354.6415100097657	-893.1595458984377	93.87776947021486	172.3014831542969	-881.176452636719	127.1508941650391	203.0637359619141	-963.9812622070315	55.85046768188478	119.991081237793	-943.9884033203127	269.5572204589844	179.1479187011719	-936.849548339844	267.8851928710938	187.727279663086	-889.378845214844	224.9269409179688	152.3410034179688	-844.8702392578127	
537	2.68	-220.1779479980469	1625.0546875	-1072.75830078125	-381.5937194824219	1575.727783203125	-1146.391479492188	-401.0428771972657	1573.99951171875	-1007.181701660156	-439.7320251464845	1415.414428710938	-1068.019287109375	-515.3121337890626	1092.738647460938	-1073.663452148438	-300.0494079589844	1345.82470703125	-1073.609375	-361.9974670410157	1410.931762695313	-1221.325317382813	-242.1225891113282	1283.324829101563	-1368.066162109375	-204.4825134277344	1313.9482421875	-1360.048950195313	-177.7464904785157	1269.557250976563	-1389.751831054688	-120.7013092041016	1267.230346679688	-1395.438354492188	-120.0220947265625	1199.939819335938	-1353.140502929688	146.321517944336	1263.828125	-1346.828002929688	149.1047821044922	1232.59228515625	-1419.949340820313	233.0238342285157	1276.837036132813	-1376.302978515625	-357.6218261718751	1403.289794921875	-923.7429199218752	-216.6533813476563	1281.213500976563	-790.4014282226565	-178.9129333496094	1309.112182617188	-801.2639770507815	-150.1095581054688	1261.061767578125	-776.8470458984377	-105.6807708740235	1252.61767578125	-776.9592895507815	-112.0731887817383	1194.379150390625	-826.4937133789065	157.5102691650391	1290.953491210938	-886.9904785156252	161.8840789794922	1254.911499023438	-815.4195556640627	235.9300079345704	1314.847290039063	-875.6199951171877	-331.2139892578126	914.0659790039065	-1168.556762695313	-352.1329956054688	939.1848754882815	-923.2381591796877	-528.4603881835939	992.8391723632815	-1065.572631835938	-530.3848876953126	958.5515747070315	-1091.786499023438	-535.4854125976564	962.011901855469	-1034.615234375	-298.6278076171876	681.7341308593751	-1242.969116210938	-226.2180633544922	637.3559570312501	-1233.834594726563	-191.2830810546875	667.7070922851564	-1225.92431640625	-218.7074279785157	579.2060546875001	-1218.52978515625	-140.7237548828125	461.5579223632814	-1179.045776367188	-117.3515548706055	485.467498779297	-1045.222412109375	-152.6710357666016	314.4782714843751	-1097.778930664063	-216.6544494628907	280.6676940917969	-1148.883544921875	-183.2152404785157	269.3052978515626	-1121.063354492188	-222.8183898925782	211.0503234863282	-1073.736206054688	-335.5601196289063	110.4254226684571	-1100.112060546875	-300.8911132812501	134.0500946044922	-1008.853759765625	-406.4505615234376	104.7281112670899	-1037.681274414063	-198.0413970947266	55.66434860229494	-1017.321716308594	-189.0550842285157	54.63082122802736	-1066.52783203125	-242.3022613525391	39.9875831604004	-1117.555541992188	-239.3411712646485	693.1539306640626	-843.1589965820315	-173.3828430175782	686.8011474609376	-853.1878051757815	-153.5116424560547	710.9881591796876	-861.813903808594	-134.4187316894532	614.0566406250001	-866.9307861328127	-84.88594818115236	540.6671142578126	-874.2535400390627	-58.24916458129884	573.2890625000001	-1004.94189453125	12.61108016967774	474.0782775878907	-884.9333496093752	-14.05645942687989	374.6360168457032	-856.349548339844	28.89633750915528	390.0299682617189	-865.4096679687502	64.89805603027345	354.1369323730469	-893.3395996093752	94.11354827880861	171.9726715087891	-881.3125610351565	127.3423767089844	202.6226348876954	-964.2243652343752	56.25816345214845	119.5366439819336	-944.1857910156252	270.0695190429688	178.8627166748047	-937.1419067382815	268.1761474609376	187.3764953613282	-889.7568359375002	225.1176757812501	151.9748687744141	-845.1218261718752	
